<svg width="15" height="12" viewBox="0 0 15 12" fill="none" xmlns="http://www.w3.org/2000/svg">
<path d="M13.5937 0H1.40626C0.6308 0 0 0.672853 0 1.50001V10.5C0 11.3271 0.6308 12 1.40626 12H13.5937C14.3692 12 15 11.3271 15 10.5V1.50001C15 0.672853 14.3692 0 13.5937 0V0ZM13.5937 0.999994C13.6574 0.999994 13.718 1.01409 13.7734 1.0387L7.5 6.83838L1.22656 1.0387C1.28195 1.01412 1.34254 0.999994 1.40623 0.999994H13.5937ZM13.5937 11H1.40626C1.14763 11 0.937496 10.7759 0.937496 10.5V2.09521L7.19283 7.87792C7.2812 7.95944 7.3906 7.99999 7.5 7.99999C7.6094 7.99999 7.7188 7.95948 7.80717 7.87792L14.0625 2.09521V10.5C14.0625 10.7759 13.8524 11 13.5937 11V11Z" fill="#FAFAFA"/>
</svg>
