<svg width="62" height="38" viewBox="0 0 62 38" fill="none" xmlns="http://www.w3.org/2000/svg">
<path d="M62.0008 19.0004C62.0008 29.2353 53.7341 37.6004 43.4008 37.6004C33.1659 37.6004 24.8008 29.2353 24.8008 19.0004C24.8008 8.76547 33.0674 0.400391 43.3024 0.400391C53.7341 0.400391 62.0008 8.76547 62.0008 19.0004Z" fill="#FFB600"/>
<path d="M43.4008 0.400391C53.6357 0.400391 62.0008 8.76547 62.0008 19.0004C62.0008 29.2353 53.7341 37.6004 43.4008 37.6004C33.1659 37.6004 24.8008 29.2353 24.8008 19.0004" fill="#F7981D"/>
<path d="M43.4004 0.400391C53.6353 0.400391 62.0004 8.76547 62.0004 19.0004C62.0004 29.2353 53.7337 37.6004 43.4004 37.6004" fill="#FF8500"/>
<path d="M18.4032 0.400391C8.26667 0.498803 0 8.76547 0 19.0004C0 29.2353 8.26667 37.6004 18.6 37.6004C23.4222 37.6004 27.7524 35.7306 31.0984 32.7782C31.7873 32.1877 32.3778 31.4988 32.9683 30.8099H29.1302C28.6381 30.2194 28.146 29.5305 27.7524 28.9401H34.346C34.7397 28.3496 35.1333 27.6607 35.4286 26.9718H26.6698C26.3746 26.3813 26.0794 25.6925 25.8825 25.0036H36.1175C36.7079 23.1337 37.1016 21.1655 37.1016 19.0988C37.1016 17.721 36.9048 16.4417 36.7079 15.1623H25.2921C25.3905 14.4734 25.5873 13.8829 25.7841 13.194H36.019C35.8222 12.5052 35.527 11.8163 35.2317 11.2258H26.5714C26.8667 10.5369 27.2603 9.94642 27.654 9.25753H34.2476C33.854 8.56865 33.3619 7.87976 32.7714 7.28928H29.1302C29.7206 6.60039 30.3111 6.00992 31 5.41944C27.7524 2.36865 23.3238 0.597216 18.5016 0.597216C18.5016 0.40039 18.5016 0.400391 18.4032 0.400391Z" fill="#FF5050"/>
<path d="M0 18.9999C0 29.2348 8.26667 37.5999 18.6 37.5999C23.4222 37.5999 27.7524 35.73 31.0984 32.7776C31.7873 32.1872 32.3778 31.4983 32.9683 30.8094H29.1302C28.6381 30.2189 28.146 29.53 27.7524 28.9395H34.346C34.7397 28.3491 35.1333 27.6602 35.4286 26.9713H26.6698C26.3746 26.3808 26.0794 25.6919 25.8825 25.003H36.1175C36.7079 23.1332 37.1016 21.1649 37.1016 19.0983C37.1016 17.7205 36.9048 16.4411 36.7079 15.1618H25.2921C25.3905 14.4729 25.5873 13.8824 25.7841 13.1935H36.019C35.8222 12.5046 35.527 11.8157 35.2317 11.2253H26.5714C26.8667 10.5364 27.2603 9.94589 27.654 9.257H34.2476C33.854 8.56811 33.3619 7.87922 32.7714 7.28875H29.1302C29.7206 6.59986 30.3111 6.00938 31 5.4189C27.7524 2.36811 23.3238 0.59668 18.5016 0.59668H18.4032" fill="#E52836"/>
<path d="M18.6011 37.5999C23.4233 37.5999 27.7535 35.73 31.0995 32.7776C31.7884 32.1872 32.3789 31.4983 32.9694 30.8094H29.1313C28.6392 30.2189 28.1472 29.53 27.7535 28.9395H34.3472C34.7408 28.3491 35.1345 27.6602 35.4297 26.9713H26.671C26.3757 26.3808 26.0805 25.6919 25.8837 25.003H36.1186C36.7091 23.1332 37.1027 21.1649 37.1027 19.0983C37.1027 17.7205 36.9059 16.4411 36.7091 15.1618H25.2932C25.3916 14.4729 25.5884 13.8824 25.7853 13.1935H36.0202C35.8233 12.5046 35.5281 11.8157 35.2329 11.2253H26.5726C26.8678 10.5364 27.2614 9.94589 27.6551 9.257H34.2487C33.8551 8.56811 33.363 7.87922 32.7726 7.28875H29.1313C29.7218 6.59986 30.3122 6.00938 31.0011 5.4189C27.7535 2.36811 23.3249 0.59668 18.5027 0.59668H18.4043" fill="#CB2026"/>
<path d="M25.1938 23.7238L25.489 22.0508C25.3906 22.0508 25.1938 22.1492 24.997 22.1492C24.3081 22.1492 24.2097 21.7555 24.3081 21.5587L24.8986 18.1143H25.9811L26.2763 16.2444H25.2922L25.489 15.0635H23.5208C23.5208 15.0635 22.3398 21.5587 22.3398 22.346C22.3398 23.527 23.0287 24.019 23.9144 24.019C24.5049 24.019 24.997 23.8222 25.1938 23.7238Z" fill="white"/>
<path d="M25.8828 20.5748C25.8828 23.3304 27.7527 24.0193 29.3273 24.0193C30.8034 24.0193 31.3939 23.724 31.3939 23.724L31.7876 21.8542C31.7876 21.8542 30.705 22.3462 29.7209 22.3462C27.5558 22.3462 27.9495 20.7716 27.9495 20.7716H31.9844C31.9844 20.7716 32.2796 19.4923 32.2796 19.0002C32.2796 17.7208 31.5908 16.1462 29.4257 16.1462C27.359 15.9494 25.8828 18.1145 25.8828 20.5748ZM29.3273 17.7208C30.4098 17.7208 30.213 19.0002 30.213 19.0986H28.0479C28.0479 19.0002 28.2447 17.7208 29.3273 17.7208Z" fill="white"/>
<path d="M41.8248 23.7238L42.2185 21.5587C42.2185 21.5587 41.2343 22.0507 40.5454 22.0507C39.1677 22.0507 38.5772 20.9682 38.5772 19.7873C38.5772 17.4254 39.7581 16.146 41.1359 16.146C42.1201 16.146 42.9074 16.7365 42.9074 16.7365L43.2026 14.6698C43.2026 14.6698 42.0216 14.1777 40.9391 14.1777C38.6756 14.1777 36.4121 16.146 36.4121 19.8857C36.4121 22.346 37.5931 24.019 39.955 24.019C40.7423 24.019 41.8248 23.7238 41.8248 23.7238Z" fill="white"/>
<path d="M14.3686 15.9492C12.9908 15.9492 12.0067 16.3429 12.0067 16.3429L11.7114 18.0159C11.7114 18.0159 12.5972 17.6222 13.8765 17.6222C14.5654 17.6222 15.1559 17.7206 15.1559 18.3111C15.1559 18.7048 15.0575 18.8032 15.0575 18.8032C15.0575 18.8032 14.467 18.8032 14.1718 18.8032C12.4987 18.8032 10.6289 19.4921 10.6289 21.7556C10.6289 23.527 11.8099 23.9206 12.4987 23.9206C13.8765 23.9206 14.467 23.0349 14.5654 23.0349L14.467 23.8222H16.2384L17.0257 18.4095C17.0257 16.0476 15.0575 15.9492 14.3686 15.9492ZM14.7622 20.3778C14.7622 20.673 14.5654 22.2476 13.3845 22.2476C12.794 22.2476 12.5972 21.7556 12.5972 21.4603C12.5972 20.9683 12.8924 20.2794 14.3686 20.2794C14.6638 20.3778 14.7622 20.3778 14.7622 20.3778Z" fill="white"/>
<path d="M18.8944 23.9204C19.3864 23.9204 21.8467 24.0188 21.8467 21.3617C21.8467 18.9014 19.4848 19.3934 19.4848 18.4093C19.4848 17.9173 19.8785 17.7204 20.5674 17.7204C20.8626 17.7204 21.9451 17.8188 21.9451 17.8188L22.2404 16.0474C22.2404 16.0474 21.5515 15.8506 20.3705 15.8506C18.8944 15.8506 17.4182 16.4411 17.4182 18.4093C17.4182 20.6728 19.8785 20.476 19.8785 21.3617C19.8785 21.9522 19.1896 22.0506 18.6975 22.0506C17.8118 22.0506 16.9261 21.7553 16.9261 21.7553L16.6309 23.5268C16.7293 23.7236 17.2213 23.9204 18.8944 23.9204Z" fill="white"/>
<path d="M58.1623 14.375L57.7686 17.0321C57.7686 17.0321 56.9813 16.048 55.8988 16.048C54.1273 16.048 52.5527 18.2131 52.5527 20.7718C52.5527 22.3464 53.34 24.0194 55.0131 24.0194C56.194 24.0194 56.8829 23.2321 56.8829 23.2321L56.7845 23.921H58.7527L60.2289 14.4734L58.1623 14.375ZM57.2765 19.5909C57.2765 20.6734 56.7845 22.0512 55.7019 22.0512C55.013 22.0512 54.6194 21.4607 54.6194 20.4766C54.6194 18.902 55.3083 17.9179 56.194 17.9179C56.8829 17.9179 57.2765 18.4099 57.2765 19.5909Z" fill="white"/>
<path d="M3.64133 23.8226L4.82228 16.7369L5.0191 23.8226H6.39688L8.95561 16.7369L7.87307 23.8226H9.93974L11.5143 14.375H8.26672L6.29847 20.1814L6.20006 14.375H3.34609L1.77148 23.8226H3.64133Z" fill="white"/>
<path d="M34.1495 23.8227C34.7399 20.5751 34.8383 17.9179 36.2161 18.41C36.4129 17.1306 36.7082 16.6385 36.905 16.1465C36.905 16.1465 36.8066 16.1465 36.5114 16.1465C35.6256 16.1465 34.9368 17.3274 34.9368 17.3274L35.1336 16.2449H33.2637L31.9844 23.9211H34.1495V23.8227Z" fill="white"/>
<path d="M46.353 15.9492C44.9752 15.9492 43.9911 16.3429 43.9911 16.3429L43.6958 18.0159C43.6958 18.0159 44.5815 17.6222 45.8609 17.6222C46.5498 17.6222 47.1403 17.7206 47.1403 18.3111C47.1403 18.7048 47.0419 18.8032 47.0419 18.8032C47.0419 18.8032 46.4514 18.8032 46.1561 18.8032C44.4831 18.8032 42.6133 19.4921 42.6133 21.7556C42.6133 23.527 43.7942 23.9206 44.4831 23.9206C45.8609 23.9206 46.4514 23.0349 46.5498 23.0349L46.4514 23.8222H48.2228L49.0101 18.4095C49.1085 16.0476 47.0419 15.9492 46.353 15.9492ZM46.845 20.3778C46.845 20.673 46.6482 22.2476 45.4673 22.2476C44.8768 22.2476 44.68 21.7556 44.68 21.4603C44.68 20.9683 44.9752 20.2794 46.4514 20.2794C46.7466 20.3778 46.7466 20.3778 46.845 20.3778Z" fill="white"/>
<path d="M50.6827 23.8227C51.2731 20.5751 51.3716 17.9179 52.7493 18.41C52.9462 17.1306 53.2414 16.6385 53.4382 16.1465C53.4382 16.1465 53.3398 16.1465 53.0446 16.1465C52.1589 16.1465 51.47 17.3274 51.47 17.3274L51.6668 16.2449H49.7969L48.5176 23.9211H50.6827V23.8227Z" fill="white"/>
<path d="M22.1426 22.346C22.1426 23.527 22.8315 24.019 23.7172 24.019C24.4061 24.019 24.9965 23.8222 25.1934 23.7238L25.4886 22.0508C25.3902 22.0508 25.1934 22.1492 24.9965 22.1492C24.3077 22.1492 24.2092 21.7555 24.3077 21.5587L24.8981 18.1143H25.9807L26.2759 16.2444H25.2918L25.4886 15.0635" fill="#DCE5E5"/>
<path d="M26.8672 20.5748C26.8672 23.3304 27.7529 24.0193 29.3275 24.0193C30.8037 24.0193 31.3942 23.724 31.3942 23.724L31.7878 21.8542C31.7878 21.8542 30.7053 22.3462 29.7212 22.3462C27.5561 22.3462 27.9497 20.7716 27.9497 20.7716H31.9847C31.9847 20.7716 32.2799 19.4923 32.2799 19.0002C32.2799 17.7208 31.591 16.1462 29.4259 16.1462C27.3593 15.9494 26.8672 18.1145 26.8672 20.5748ZM29.3275 17.7208C30.4101 17.7208 30.6069 19.0002 30.6069 19.0986H28.0481C28.0481 19.0002 28.245 17.7208 29.3275 17.7208Z" fill="#DCE5E5"/>
<path d="M41.8251 23.7238L42.2187 21.5587C42.2187 21.5587 41.2346 22.0507 40.5457 22.0507C39.1679 22.0507 38.5774 20.9682 38.5774 19.7873C38.5774 17.4254 39.7584 16.146 41.1362 16.146C42.1203 16.146 42.9076 16.7365 42.9076 16.7365L43.2028 14.6698C43.2028 14.6698 42.0219 14.1777 40.9393 14.1777C38.6758 14.1777 37.3965 16.146 37.3965 19.8857C37.3965 22.346 37.5933 24.019 39.9552 24.019C40.7425 24.019 41.8251 23.7238 41.8251 23.7238Z" fill="#DCE5E5"/>
<path d="M11.7114 18.1147C11.7114 18.1147 12.5972 17.7211 13.8765 17.7211C14.5654 17.7211 15.1559 17.8195 15.1559 18.41C15.1559 18.8036 15.0575 18.902 15.0575 18.902C15.0575 18.902 14.467 18.902 14.1718 18.902C12.4987 18.902 10.6289 19.5909 10.6289 21.8544C10.6289 23.6259 11.8099 24.0195 12.4987 24.0195C13.8765 24.0195 14.467 23.1338 14.5654 23.1338L14.467 23.9211H16.2384L17.0257 18.5084C17.0257 16.2449 15.0575 16.1465 14.2702 16.1465L11.7114 18.1147ZM15.7464 20.3782C15.7464 20.6735 14.5654 22.2481 13.3845 22.2481C12.794 22.2481 12.5972 21.756 12.5972 21.4608C12.5972 20.9687 12.8924 20.2798 14.3686 20.2798C14.6638 20.3782 15.7464 20.3782 15.7464 20.3782Z" fill="#DCE5E5"/>
<path d="M16.7305 23.7236C16.7305 23.7236 17.3209 23.9204 18.994 23.9204C19.486 23.9204 21.9463 24.0188 21.9463 21.3617C21.9463 18.9014 19.5844 19.3934 19.5844 18.4093C19.5844 17.9173 19.9781 17.7204 20.667 17.7204C20.9622 17.7204 22.0448 17.8188 22.0448 17.8188L22.34 16.0474C22.34 16.0474 21.6511 15.8506 20.4702 15.8506C18.994 15.8506 18.5019 16.4411 18.5019 18.4093C18.5019 20.6728 19.9781 20.476 19.9781 21.3617C19.9781 21.9522 19.2892 22.0506 18.7971 22.0506" fill="#DCE5E5"/>
<path d="M57.7682 17.0314C57.7682 17.0314 56.9809 16.0473 55.8983 16.0473C54.1269 16.0473 53.5364 18.2123 53.5364 20.7711C53.5364 22.3457 53.3396 24.0187 55.0126 24.0187C56.1936 24.0187 56.8825 23.2314 56.8825 23.2314L56.7841 23.9203H58.7523L60.2285 14.4727L57.7682 17.0314ZM57.6698 19.5901C57.6698 20.6727 56.7841 22.0504 55.7015 22.0504C55.0126 22.0504 54.619 21.46 54.619 20.4758C54.619 18.9012 55.3079 17.9171 56.1936 17.9171C56.8825 17.9171 57.6698 18.4092 57.6698 19.5901Z" fill="#DCE5E5"/>
<path d="M3.64133 23.8226L4.82228 16.7369L5.0191 23.8226H6.39688L8.95561 16.7369L7.87307 23.8226H9.93974L11.5143 14.375H9.05402L6.29847 20.1814L6.20006 14.375H5.11752L1.77148 23.8226H3.64133Z" fill="#DCE5E5"/>
<path d="M32.082 23.8227H34.1487C34.7392 20.5751 34.8376 17.9179 36.2154 18.41C36.4122 17.1306 36.7074 16.6385 36.9043 16.1465C36.9043 16.1465 36.8059 16.1465 36.5106 16.1465C35.6249 16.1465 34.936 17.3274 34.936 17.3274L35.1328 16.2449" fill="#DCE5E5"/>
<path d="M43.6958 18.1147C43.6958 18.1147 44.5815 17.7211 45.8609 17.7211C46.5498 17.7211 47.1403 17.8195 47.1403 18.41C47.1403 18.8036 47.0419 18.902 47.0419 18.902C47.0419 18.902 46.4514 18.902 46.1561 18.902C44.4831 18.902 42.6133 19.5909 42.6133 21.8544C42.6133 23.6259 43.7942 24.0195 44.4831 24.0195C45.8609 24.0195 46.4514 23.1338 46.5498 23.1338L46.4514 23.9211H48.2228L49.0101 18.5084C49.0101 16.2449 47.0419 16.1465 46.2546 16.1465L43.6958 18.1147ZM47.7307 20.3782C47.7307 20.6735 46.5498 22.2481 45.3688 22.2481C44.7784 22.2481 44.5815 21.756 44.5815 21.4608C44.5815 20.9687 44.8768 20.2798 46.353 20.2798C46.7466 20.3782 47.7307 20.3782 47.7307 20.3782Z" fill="#DCE5E5"/>
<path d="M48.6152 23.8227H50.6819C51.2724 20.5751 51.3708 17.9179 52.7486 18.41C52.9454 17.1306 53.2406 16.6385 53.4375 16.1465C53.4375 16.1465 53.339 16.1465 53.0438 16.1465C52.1581 16.1465 51.4692 17.3274 51.4692 17.3274L51.666 16.2449" fill="#DCE5E5"/>
</svg>
