<svg width="38" height="38" viewBox="0 0 38 38" fill="none" xmlns="http://www.w3.org/2000/svg">
<mask id="mask-tg" mask-type="alpha" maskUnits="userSpaceOnUse" x="1" y="0" width="36" height="36">
<circle cx="19" cy="18" r="18" fill="#C4C4C4"/>
</mask>
<g mask="url(#mask-tg)">
<path d="M27.623 9.62292L7.56166 17.4406C6.91187 17.6939 6.95123 18.6263 7.62011 18.8238L12.7179 20.3292L14.6204 26.366C14.8192 26.9966 15.6183 27.1878 16.0808 26.7154L18.7165 24.0242L23.888 27.8202C24.5209 28.2848 25.4222 27.9396 25.5829 27.1712L29.008 10.7958C29.1757 9.99367 28.3866 9.32538 27.623 9.62292ZM25.1079 13.257L15.7895 21.4973C15.6966 21.5794 15.6375 21.6931 15.6237 21.8164L15.2649 25.0056C15.2532 25.1096 15.1076 25.1234 15.0766 25.0235L13.6005 20.2672C13.5329 20.0494 13.621 19.8135 13.8148 19.6933L24.8188 12.8685C25.0719 12.7115 25.331 13.0598 25.1079 13.257Z" fill="white"/>
</g>
<circle cx="19" cy="19" r="18.25" stroke="white" stroke-width="1.5"/>
<circle cx="19" cy="19" r="18.25" stroke="white" stroke-width="1.5"/>
<circle cx="19" cy="19" r="18.25" stroke="white" stroke-width="1.5"/>
</svg>
