<svg width="36" height="36" viewBox="0 0 36 36" fill="none" xmlns="http://www.w3.org/2000/svg">
<mask id="mask-tg-col" mask-type="alpha" maskUnits="userSpaceOnUse" x="0" y="0" width="36" height="36">
<circle cx="18" cy="18" r="18" fill="#C4C4C4"/>
</mask>
<g mask="url(#mask-tg-col)">
<path d="M36.0501 -0.836914H-0.787109V36.0003H36.0501V-0.836914Z" fill="#61A8DE"/>
<path d="M28.2193 7.29463L3.58582 16.894C2.78794 17.205 2.83627 18.35 3.6576 18.5925L9.91723 20.4409L12.2533 27.8536C12.4974 28.6279 13.4786 28.8626 14.0466 28.2827L17.283 24.9781L23.6331 29.6392C24.4102 30.2097 25.5169 29.7859 25.7142 28.8423L29.9199 8.7348C30.1259 7.74988 29.1569 6.92928 28.2193 7.29463ZM25.1309 11.757L13.6888 21.8753C13.5748 21.9761 13.5022 22.1157 13.4852 22.267L13.0447 26.1831C13.0303 26.3109 12.8516 26.3278 12.8134 26.2051L11.0009 20.3648C10.9179 20.0974 11.0262 19.8077 11.264 19.6602L24.776 11.2799C25.0867 11.0871 25.4049 11.5148 25.1309 11.757Z" fill="white"/>
</g>
</svg>
