<svg width="22" height="14" viewBox="0 0 22 14" fill="none" xmlns="http://www.w3.org/2000/svg">
<path d="M20.6609 0H11.019L0.375 7.3666V13.4894H20.6609L21.3496 13.0854V11.8064L20.9014 11.3801V10.1709L21.3496 9.83865V7.87091L20.9465 7.48474V6.24765L21.3496 5.90313V3.93543L20.9465 3.57895V2.49477L21.3496 1.96774V0.688702C21.3496 0.308323 21.0413 0 20.6609 0Z" fill="#E5646E"/>
<path d="M10.6875 1.96777H21.3486V3.93551H10.6875V1.96777Z" fill="#F2F2F6"/>
<path d="M10.6748 5.90234L11.0192 7.87008H21.3498V5.90234H10.6748Z" fill="#F2F2F6"/>
<path d="M0.688702 11.0195V7.5127L0 7.87106V9.83879L0.291894 10.0876V11.3803L0 11.8065V13.0856C0 13.4659 0.308365 13.7743 0.688702 13.7743H20.6612C21.0416 13.7743 21.3499 13.4659 21.3499 13.0856H2.75485C1.61375 13.0856 0.688702 12.1606 0.688702 11.0195Z" fill="#DB4655"/>
<path d="M11.0191 0H0.688507L0.25 0.688702L0.688507 7.87091H11.0191V0Z" fill="#5055A0"/>
<path d="M0.688702 0C0.308365 0 0 0.308323 0 0.688702V7.87091H0.688702V0Z" fill="#3F3F8F"/>
<path d="M1.3802 1.53538C1.18984 1.53538 1.03418 1.38118 1.03418 1.19103C1.03418 1.00088 1.18651 0.84668 1.37686 0.84668H1.38024C1.5706 0.84668 1.72459 1.00088 1.72459 1.19103C1.72459 1.38118 1.57051 1.53538 1.3802 1.53538Z" fill="white"/>
<path d="M1.3802 4.29124C1.18984 4.29124 1.03418 4.13704 1.03418 3.94689C1.03418 3.75674 1.18651 3.60254 1.37686 3.60254H1.38024C1.5706 3.60254 1.72459 3.75674 1.72459 3.94689C1.72459 4.13704 1.57051 4.29124 1.3802 4.29124Z" fill="white"/>
<path d="M1.3802 7.04515C1.18984 7.04515 1.03418 6.89095 1.03418 6.7008C1.03418 6.51065 1.18651 6.35645 1.37686 6.35645H1.38024C1.5706 6.35645 1.72459 6.51065 1.72459 6.7008C1.72459 6.89095 1.57051 7.04515 1.3802 7.04515Z" fill="white"/>
<path d="M1.3802 2.91331C1.18984 2.91331 1.03418 2.75911 1.03418 2.56896C1.03418 2.37881 1.18651 2.22461 1.37686 2.22461H1.38024C1.5706 2.22461 1.72459 2.37881 1.72459 2.56896C1.72455 2.75911 1.57051 2.91331 1.3802 2.91331Z" fill="#F2F2F6"/>
<path d="M1.3802 5.66722C1.18984 5.66722 1.03418 5.51301 1.03418 5.32287C1.03418 5.13272 1.18651 4.97852 1.37686 4.97852H1.38024C1.5706 4.97852 1.72459 5.13272 1.72459 5.32287C1.72459 5.51301 1.57051 5.66722 1.3802 5.66722Z" fill="#F2F2F6"/>
<path d="M9.64485 1.53538C9.45449 1.53538 9.29883 1.38118 9.29883 1.19103C9.29883 1.00088 9.45115 0.84668 9.64151 0.84668H9.64489C9.83525 0.84668 9.98924 1.00088 9.98924 1.19103C9.98924 1.38118 9.8352 1.53538 9.64485 1.53538Z" fill="white"/>
<path d="M9.64485 4.29124C9.45449 4.29124 9.29883 4.13704 9.29883 3.94689C9.29883 3.75674 9.45115 3.60254 9.64151 3.60254H9.64489C9.83525 3.60254 9.98924 3.75674 9.98924 3.94689C9.98924 4.13704 9.8352 4.29124 9.64485 4.29124Z" fill="white"/>
<path d="M9.64485 7.04515C9.45449 7.04515 9.29883 6.89095 9.29883 6.7008C9.29883 6.51065 9.45115 6.35645 9.64151 6.35645H9.64489C9.83525 6.35645 9.98924 6.51065 9.98924 6.7008C9.98924 6.89095 9.8352 7.04515 9.64485 7.04515Z" fill="white"/>
<path d="M9.64582 2.91233C9.45547 2.91233 9.2998 2.75813 9.2998 2.56798C9.2998 2.37784 9.45213 2.22363 9.64249 2.22363H9.64587C9.83622 2.22363 9.99022 2.37784 9.99022 2.56798C9.99022 2.75813 9.83618 2.91233 9.64582 2.91233Z" fill="#F2F2F6"/>
<path d="M9.64582 5.66819C9.45547 5.66819 9.2998 5.51399 9.2998 5.32384C9.2998 5.1337 9.45213 4.97949 9.64249 4.97949H9.64587C9.83622 4.97949 9.99022 5.1337 9.99022 5.32384C9.99022 5.51399 9.83618 5.66819 9.64582 5.66819Z" fill="#F2F2F6"/>
<path d="M3.4466 1.53538C3.25625 1.53538 3.10059 1.38118 3.10059 1.19103C3.10059 1.00088 3.25291 0.84668 3.44327 0.84668H3.44665C3.637 0.84668 3.791 1.00088 3.791 1.19103C3.791 1.38118 3.63696 1.53538 3.4466 1.53538Z" fill="#F2F2F6"/>
<path d="M3.4466 4.29026C3.25625 4.29026 3.10059 4.13606 3.10059 3.94591C3.10059 3.75577 3.25291 3.60156 3.44327 3.60156H3.44665C3.637 3.60156 3.791 3.75577 3.791 3.94591C3.791 4.13606 3.63696 4.29026 3.4466 4.29026Z" fill="#F2F2F6"/>
<path d="M3.4466 7.04418C3.25625 7.04418 3.10059 6.88997 3.10059 6.69982C3.10059 6.50967 3.25291 6.35547 3.44327 6.35547H3.44665C3.637 6.35547 3.791 6.50967 3.791 6.69982C3.791 6.88997 3.63696 7.04418 3.4466 7.04418Z" fill="#F2F2F6"/>
<path d="M3.4466 2.91331C3.25625 2.91331 3.10059 2.75911 3.10059 2.56896C3.10059 2.37881 3.25291 2.22461 3.44327 2.22461H3.44665C3.637 2.22461 3.791 2.37881 3.791 2.56896C3.79096 2.75911 3.63696 2.91331 3.4466 2.91331Z" fill="white"/>
<path d="M3.4466 5.66722C3.25625 5.66722 3.10059 5.51301 3.10059 5.32287C3.10059 5.13272 3.25291 4.97852 3.44327 4.97852H3.44665C3.637 4.97852 3.791 5.13272 3.791 5.32287C3.791 5.51301 3.63696 5.66722 3.4466 5.66722Z" fill="white"/>
<path d="M2.41438 2.22386C2.22402 2.22386 2.06836 2.06965 2.06836 1.87951C2.06836 1.68936 2.22069 1.53516 2.41104 1.53516H2.41442C2.60478 1.53516 2.75877 1.68936 2.75877 1.87951C2.75873 2.0697 2.60473 2.22386 2.41438 2.22386Z" fill="white"/>
<path d="M2.41438 4.97874C2.22402 4.97874 2.06836 4.82454 2.06836 4.63439C2.06836 4.44424 2.22069 4.29004 2.41104 4.29004H2.41442C2.60478 4.29004 2.75877 4.44424 2.75877 4.63439C2.75877 4.82454 2.60473 4.97874 2.41438 4.97874Z" fill="white"/>
<path d="M2.41438 3.60081C2.22402 3.60081 2.06836 3.44661 2.06836 3.25646C2.06836 3.06631 2.22069 2.91211 2.41104 2.91211H2.41442C2.60478 2.91211 2.75877 3.06631 2.75877 3.25646C2.75877 3.44661 2.60473 3.60081 2.41438 3.60081Z" fill="#F2F2F6"/>
<path d="M2.41438 6.35569C2.22402 6.35569 2.06836 6.20149 2.06836 6.01134C2.06836 5.8212 2.22069 5.66699 2.41104 5.66699H2.41442C2.60478 5.66699 2.75877 5.8212 2.75877 6.01134C2.75877 6.20149 2.60473 6.35569 2.41438 6.35569Z" fill="#F2F2F6"/>
<path d="M5.51301 1.53538C5.32266 1.53538 5.16699 1.38118 5.16699 1.19103C5.16699 1.00088 5.31932 0.84668 5.50968 0.84668H5.51305C5.70341 0.84668 5.85741 1.00088 5.85741 1.19103C5.85741 1.38118 5.70333 1.53538 5.51301 1.53538Z" fill="white"/>
<path d="M5.51301 4.29124C5.32266 4.29124 5.16699 4.13704 5.16699 3.94689C5.16699 3.75674 5.31932 3.60254 5.50968 3.60254H5.51305C5.70341 3.60254 5.85741 3.75674 5.85741 3.94689C5.85741 4.13704 5.70333 4.29124 5.51301 4.29124Z" fill="white"/>
<path d="M5.51301 7.04515C5.32266 7.04515 5.16699 6.89095 5.16699 6.7008C5.16699 6.51065 5.31932 6.35645 5.50968 6.35645H5.51305C5.70341 6.35645 5.85741 6.51065 5.85741 6.7008C5.85741 6.89095 5.70333 7.04515 5.51301 7.04515Z" fill="white"/>
<path d="M5.51301 2.91331C5.32266 2.91331 5.16699 2.75911 5.16699 2.56896C5.16699 2.37881 5.31932 2.22461 5.50968 2.22461H5.51305C5.70341 2.22461 5.85741 2.37881 5.85741 2.56896C5.85736 2.75911 5.70333 2.91331 5.51301 2.91331Z" fill="#F2F2F6"/>
<path d="M5.51301 5.66722C5.32266 5.66722 5.16699 5.51301 5.16699 5.32287C5.16699 5.13272 5.31932 4.97852 5.50968 4.97852H5.51305C5.70341 4.97852 5.85741 5.13272 5.85741 5.32287C5.85741 5.51301 5.70333 5.66722 5.51301 5.66722Z" fill="#F2F2F6"/>
<path d="M4.48078 2.22386C4.29043 2.22386 4.13477 2.06965 4.13477 1.87951C4.13477 1.68936 4.28709 1.53516 4.47745 1.53516H4.48083C4.67118 1.53516 4.82518 1.68936 4.82518 1.87951C4.82518 2.0697 4.67114 2.22386 4.48078 2.22386Z" fill="#F2F2F6"/>
<path d="M4.48078 4.97874C4.29043 4.97874 4.13477 4.82454 4.13477 4.63439C4.13477 4.44424 4.28709 4.29004 4.47745 4.29004H4.48083C4.67118 4.29004 4.82518 4.44424 4.82518 4.63439C4.82518 4.82454 4.67114 4.97874 4.48078 4.97874Z" fill="#F2F2F6"/>
<path d="M4.48078 3.60081C4.29043 3.60081 4.13477 3.44661 4.13477 3.25646C4.13477 3.06631 4.28709 2.91211 4.47745 2.91211H4.48083C4.67118 2.91211 4.82518 3.06631 4.82518 3.25646C4.82518 3.44661 4.67114 3.60081 4.48078 3.60081Z" fill="white"/>
<path d="M4.48078 6.35569C4.29043 6.35569 4.13477 6.20149 4.13477 6.01134C4.13477 5.8212 4.28709 5.66699 4.47745 5.66699H4.48083C4.67118 5.66699 4.82518 5.8212 4.82518 6.01134C4.82518 6.20149 4.67114 6.35569 4.48078 6.35569Z" fill="white"/>
<path d="M7.57551 1.53538C7.38515 1.53538 7.22949 1.38118 7.22949 1.19103C7.22949 1.00088 7.38182 0.84668 7.57217 0.84668H7.57555C7.76591 0.84668 7.9199 1.00088 7.9199 1.19103C7.9199 1.38118 7.76587 1.53538 7.57551 1.53538Z" fill="#F2F2F6"/>
<path d="M7.57551 4.29124C7.38515 4.29124 7.22949 4.13704 7.22949 3.94689C7.22949 3.75674 7.38182 3.60254 7.57217 3.60254H7.57555C7.76591 3.60254 7.9199 3.75674 7.9199 3.94689C7.9199 4.13704 7.76587 4.29124 7.57551 4.29124Z" fill="#F2F2F6"/>
<path d="M7.57551 7.04515C7.38515 7.04515 7.22949 6.89095 7.22949 6.7008C7.22949 6.51065 7.38182 6.35645 7.57217 6.35645H7.57555C7.76591 6.35645 7.9199 6.51065 7.9199 6.7008C7.9199 6.89095 7.76587 7.04515 7.57551 7.04515Z" fill="#F2F2F6"/>
<path d="M7.57551 2.91331C7.38515 2.91331 7.22949 2.75911 7.22949 2.56896C7.22949 2.37881 7.38182 2.22461 7.57217 2.22461H7.57555C7.76591 2.22461 7.9199 2.37881 7.9199 2.56896C7.91986 2.75911 7.76587 2.91331 7.57551 2.91331Z" fill="white"/>
<path d="M7.57551 5.66722C7.38515 5.66722 7.22949 5.51301 7.22949 5.32287C7.22949 5.13272 7.38182 4.97852 7.57217 4.97852H7.57555C7.76591 4.97852 7.9199 5.13272 7.9199 5.32287C7.9199 5.51301 7.76587 5.66722 7.57551 5.66722Z" fill="white"/>
<path d="M6.54231 2.22386C6.35195 2.22386 6.19629 2.06965 6.19629 1.87951C6.19629 1.68936 6.34862 1.53516 6.53897 1.53516H6.54235C6.73271 1.53516 6.8867 1.68936 6.8867 1.87951C6.88666 2.0697 6.73266 2.22386 6.54231 2.22386Z" fill="white"/>
<path d="M6.54231 4.97874C6.35195 4.97874 6.19629 4.82454 6.19629 4.63439C6.19629 4.44424 6.34862 4.29004 6.53897 4.29004H6.54235C6.73271 4.29004 6.8867 4.44424 6.8867 4.63439C6.8867 4.82454 6.73266 4.97874 6.54231 4.97874Z" fill="white"/>
<path d="M6.54231 3.60081C6.35195 3.60081 6.19629 3.44661 6.19629 3.25646C6.19629 3.06631 6.34862 2.91211 6.53897 2.91211H6.54235C6.73271 2.91211 6.8867 3.06631 6.8867 3.25646C6.8867 3.44661 6.73266 3.60081 6.54231 3.60081Z" fill="#F2F2F6"/>
<path d="M6.54231 6.35569C6.35195 6.35569 6.19629 6.20149 6.19629 6.01134C6.19629 5.8212 6.34862 5.66699 6.53897 5.66699H6.54235C6.73271 5.66699 6.8867 5.8212 6.8867 6.01134C6.8867 6.20149 6.73266 6.35569 6.54231 6.35569Z" fill="#F2F2F6"/>
<path d="M8.61262 2.22386C8.42226 2.22386 8.2666 2.06965 8.2666 1.87951C8.2666 1.68936 8.41893 1.53516 8.60928 1.53516H8.61266C8.80302 1.53516 8.95701 1.68936 8.95701 1.87951C8.95697 2.0697 8.80298 2.22386 8.61262 2.22386Z" fill="#F2F2F6"/>
<path d="M8.61262 4.97874C8.42226 4.97874 8.2666 4.82454 8.2666 4.63439C8.2666 4.44424 8.41893 4.29004 8.60928 4.29004H8.61266C8.80302 4.29004 8.95701 4.44424 8.95701 4.63439C8.95701 4.82454 8.80298 4.97874 8.61262 4.97874Z" fill="#F2F2F6"/>
<path d="M8.61262 3.60081C8.42226 3.60081 8.2666 3.44661 8.2666 3.25646C8.2666 3.06631 8.41893 2.91211 8.60928 2.91211H8.61266C8.80302 2.91211 8.95701 3.06631 8.95701 3.25646C8.95701 3.44661 8.80298 3.60081 8.61262 3.60081Z" fill="white"/>
<path d="M8.61262 6.35569C8.42226 6.35569 8.2666 6.20149 8.2666 6.01134C8.2666 5.8212 8.41893 5.66699 8.60928 5.66699H8.61266C8.80302 5.66699 8.95701 5.8212 8.95701 6.01134C8.95701 6.20149 8.80298 6.35569 8.61262 6.35569Z" fill="white"/>
<path d="M0.125 11.2379L0.844726 11.8066H21.3498V9.83887H0.688605L0.125 11.2379Z" fill="#F2F2F6"/>
<path d="M0 9.83891V11.8066H0.844823C0.744704 11.564 0.688744 11.2984 0.688744 11.0195V9.83887H0L0 9.83891Z" fill="#E1E1E6"/>
</svg>
