<svg width="36" height="36" viewBox="0 0 36 36" fill="none" xmlns="http://www.w3.org/2000/svg">
<mask id="mask-vb-col" mask-type="alpha" maskUnits="userSpaceOnUse" x="0" y="0" width="36" height="36">
<circle cx="18" cy="18" r="18" fill="#C4C4C4"/>
</mask>
<g mask="url(#mask-vb-col)">
<path d="M36.8569 0H-0.857422V37.7143H36.8569V0Z" fill="#7D3DAF"/>
<path d="M29.9274 12.1576L29.9199 12.1278C29.3175 9.69229 26.6014 7.07887 24.1072 6.53516L24.0791 6.52937C20.0447 5.75974 15.9541 5.75974 11.9206 6.52937L11.8916 6.53516C9.39822 7.07887 6.68218 9.69229 6.07889 12.1278L6.07227 12.1576C5.32747 15.5588 5.32747 19.0081 6.07227 22.4093L6.07889 22.4391C6.65644 24.7707 9.17023 27.264 11.5714 27.9497V30.6684C11.5714 31.6524 12.7705 32.1357 13.4524 31.4256L16.2069 28.5624C16.8043 28.5958 17.4021 28.6144 17.9998 28.6144C20.0307 28.6144 22.0623 28.4224 24.0791 28.0376L24.1072 28.0318C26.6014 27.4881 29.3175 24.8747 29.9199 22.4392L29.9274 22.4094C30.6722 19.0081 30.6722 15.5588 29.9274 12.1576ZM27.7476 21.9161C27.3454 23.505 25.2832 25.4804 23.6446 25.8453C21.4995 26.2533 19.3374 26.4276 17.1775 26.3678C17.1345 26.3666 17.0932 26.3833 17.0633 26.414C16.7568 26.7287 15.0521 28.4786 15.0521 28.4786L12.9128 30.6741C12.7564 30.8372 12.4817 30.7263 12.4817 30.5012V25.9975C12.4817 25.9231 12.4286 25.8598 12.3555 25.8455C12.3551 25.8454 12.3547 25.8453 12.3542 25.8453C10.7157 25.4803 8.65425 23.5049 8.25123 21.916C7.58091 18.8417 7.58091 15.7251 8.25123 12.6507C8.65425 11.0618 10.7157 9.08643 12.3542 8.72148C16.1006 8.00896 19.8991 8.00896 23.6446 8.72148C25.284 9.08643 27.3454 11.0618 27.7476 12.6507C28.4187 15.7252 28.4187 18.8417 27.7476 21.9161Z" fill="white"/>
<path d="M21.5632 23.9951C21.3113 23.9187 21.0712 23.8673 20.8483 23.7748C18.5381 22.8163 16.4119 21.5798 14.7278 19.6842C13.77 18.6063 13.0204 17.3894 12.3868 16.1016C12.0863 15.4908 11.8331 14.8562 11.5749 14.2257C11.3396 13.6507 11.6863 13.0567 12.0513 12.6234C12.3938 12.2169 12.8346 11.9057 13.3119 11.6764C13.6845 11.4974 14.052 11.6006 14.3241 11.9164C14.9123 12.5991 15.4526 13.3168 15.8902 14.1082C16.1592 14.5949 16.0854 15.1899 15.5978 15.5212C15.4793 15.6017 15.3713 15.6962 15.2609 15.7872C15.1641 15.8669 15.0729 15.9474 15.0066 16.0553C14.8853 16.2528 14.8795 16.4856 14.9576 16.7003C15.5589 18.3528 16.5724 19.6377 18.2356 20.3298C18.5018 20.4405 18.7691 20.5695 19.0757 20.5337C19.5892 20.4737 19.7554 19.9105 20.1153 19.6162C20.467 19.3286 20.9164 19.3248 21.2953 19.5646C21.6742 19.8044 22.0416 20.0619 22.4067 20.322C22.7651 20.5774 23.1219 20.8273 23.4525 21.1184C23.7704 21.3984 23.8799 21.7656 23.7009 22.1456C23.3732 22.8414 22.8963 23.4202 22.2085 23.7897C22.0142 23.8939 21.7823 23.9277 21.5632 23.9951C21.3113 23.9186 21.7823 23.9277 21.5632 23.9951Z" fill="white"/>
<path d="M18.0057 10.8792C21.0275 10.9638 23.5095 12.9693 24.0413 15.9567C24.1319 16.4658 24.1642 16.9862 24.2045 17.5029C24.2215 17.7202 24.0984 17.9267 23.8639 17.9295C23.6217 17.9324 23.5127 17.7297 23.497 17.5125C23.4658 17.0825 23.4442 16.6506 23.385 16.2241C23.0722 13.9731 21.2772 12.1108 19.0366 11.7111C18.6995 11.651 18.3544 11.6352 18.0129 11.5993C17.7969 11.5767 17.5142 11.5636 17.4663 11.2952C17.4262 11.0702 17.6161 10.891 17.8304 10.8795C17.8886 10.8763 17.9472 10.8789 18.0057 10.8792C21.0275 10.9638 17.9472 10.8789 18.0057 10.8792Z" fill="white"/>
<path d="M22.5976 16.8335C22.5927 16.8712 22.59 16.9599 22.5679 17.0435C22.4877 17.3469 22.0278 17.3849 21.9219 17.0787C21.8905 16.9878 21.8858 16.8845 21.8856 16.7866C21.8845 16.1466 21.7454 15.5072 21.4227 14.9504C21.0909 14.378 20.584 13.8969 19.9895 13.6058C19.63 13.4297 19.2413 13.3203 18.8473 13.2551C18.675 13.2267 18.501 13.2094 18.328 13.1853C18.1183 13.1562 18.0063 13.0225 18.0162 12.8159C18.0255 12.6222 18.167 12.4829 18.378 12.4949C19.0715 12.5342 19.7413 12.6841 20.3579 13.0106C21.6116 13.6745 22.3278 14.7226 22.5368 16.122C22.5462 16.1853 22.5615 16.2482 22.5663 16.3118C22.5781 16.4689 22.5856 16.6263 22.5976 16.8335C22.5927 16.8712 22.5856 16.6263 22.5976 16.8335Z" fill="white"/>
<path d="M20.72 16.7582C20.4672 16.7627 20.3319 16.6228 20.3058 16.391C20.2877 16.2294 20.2734 16.0656 20.2348 15.9084C20.1589 15.5987 19.9943 15.3117 19.7337 15.1219C19.6108 15.0323 19.4714 14.967 19.3254 14.9249C19.14 14.8714 18.9474 14.8861 18.7623 14.8407C18.5614 14.7915 18.4503 14.6288 18.4819 14.4403C18.5106 14.2687 18.6775 14.1348 18.865 14.1484C20.0365 14.233 20.8739 14.8387 20.9934 16.2179C21.0018 16.3152 21.0117 16.4181 20.9901 16.5112C20.9532 16.6706 20.8351 16.7504 20.72 16.7582C20.4672 16.7627 20.8351 16.7504 20.72 16.7582Z" fill="white"/>
</g>
</svg>
