<svg width="87" height="31" viewBox="0 0 87 31" fill="none" xmlns="http://www.w3.org/2000/svg">
<path d="M35.5611 0.948242L31.1948 29.9934H38.1738L42.5375 0.948242H35.5611ZM56.6125 12.7796C54.1736 11.4922 52.6785 10.6233 52.6785 9.30652C52.7083 8.1093 53.9428 6.88274 56.6996 6.88274C58.967 6.82186 60.6335 7.39147 61.8978 7.95821L62.5312 8.26038L63.48 2.1834C62.1015 1.61379 59.9158 0.986172 57.216 0.986172C50.324 0.986172 45.4711 4.8166 45.4409 10.295C45.384 14.3377 48.9154 16.5811 51.5582 17.9268C54.258 19.3073 55.177 20.2024 55.177 21.4289C55.1472 23.3121 52.994 24.181 50.9848 24.181C48.201 24.181 46.7055 23.7335 44.4355 22.6842L43.5164 22.2366L42.5405 28.5521C44.1799 29.3311 47.1949 30.0167 50.3243 30.0518C57.6487 30.0518 62.4146 26.2794 62.4745 20.4408C62.4984 17.238 60.6362 14.7849 56.6125 12.7796ZM81.3721 1.03813H75.9725C74.3086 1.03813 73.0443 1.54972 72.3239 3.37489L61.9572 29.9934H69.2815L71.2987 24.2304H79.4932L80.5398 30.0167H86.9997L81.3721 1.03813ZM73.33 18.4145C73.4713 18.4292 76.1413 9.0069 76.1413 9.0069L78.2674 18.4145C78.2674 18.4145 74.7085 18.4145 73.33 18.4145ZM25.3632 0.948242L18.5255 20.6818L17.7806 16.7901C16.5163 12.2999 12.5525 7.42047 8.12891 4.99669L14.3902 29.9644H21.7745L32.7475 0.951428H25.3632V0.948242Z" fill="#2394BC"/>
<path d="M15.4806 4.69432C14.9478 2.47964 13.2484 0.985977 10.9405 0.954102H0.111522L0 1.49151C8.44732 3.71767 15.5376 10.5676 17.8378 17.0109L15.4806 4.69432Z" fill="#EFC75E"/>
</svg>
