<svg width="38" height="38" viewBox="0 0 38 38" fill="none" xmlns="http://www.w3.org/2000/svg">
<path d="M34.7317 3.26855H4V34.0003H34.7317V3.26855Z"/>
<path d="M8.61914 29.3914L10.1245 24.045C9.15645 22.4005 8.64679 20.5294 8.64679 18.6073C8.64679 12.6889 13.4617 7.87402 19.38 7.87402C25.2984 7.87402 30.1132 12.6889 30.1132 18.6073C30.1132 24.5256 25.2984 29.3405 19.38 29.3405C17.5359 29.3405 15.7302 28.8685 14.1327 27.9721L8.61914 29.3914ZM14.4146 26.0195L14.7431 26.2201C16.1359 27.0704 17.7394 27.5198 19.38 27.5198C24.2944 27.5198 28.2925 23.5216 28.2925 18.6073C28.2925 13.6929 24.2944 9.69474 19.38 9.69474C14.4657 9.69474 10.4675 13.6929 10.4675 18.6073C10.4675 20.3196 10.9542 21.9825 11.8748 23.416L12.096 23.7606L11.2292 26.8395L14.4146 26.0195Z" fill="white"/>
<path d="M16.3646 13.611L15.6682 13.573C15.4494 13.5611 15.2348 13.6342 15.0695 13.7778C14.7319 14.071 14.192 14.6379 14.0262 15.3766C13.7789 16.478 14.161 17.8266 15.1501 19.1753C16.1391 20.524 17.9823 22.6819 21.2416 23.6035C22.2919 23.9005 23.1181 23.7003 23.7555 23.2925C24.2604 22.9695 24.6084 22.4512 24.7338 21.8652L24.845 21.3458C24.8804 21.1807 24.7966 21.0132 24.6432 20.9425L22.2894 19.8576C22.1366 19.7872 21.9554 19.8317 21.8527 19.9649L20.9286 21.1628C20.8588 21.2533 20.7393 21.2892 20.6314 21.2513C19.9986 21.0289 17.8789 20.1411 16.7158 17.9007C16.6654 17.8035 16.6779 17.6856 16.7495 17.6027L17.6326 16.5811C17.7228 16.4767 17.7456 16.3301 17.6914 16.2033L16.6768 13.8296C16.6228 13.7032 16.5017 13.6185 16.3646 13.611Z" fill="white"/>
<circle cx="19" cy="19" r="18.25" stroke="white" stroke-width="1.5"/>
<circle cx="19" cy="19" r="18.25" stroke="white" stroke-width="1.5"/>
<circle cx="19" cy="19" r="18.25" stroke="white" stroke-width="1.5"/>
</svg>
