<svg width="36" height="36" viewBox="0 0 36 36" fill="none" xmlns="http://www.w3.org/2000/svg">
<mask id="whatsapp-icon-col" mask-type="alpha" maskUnits="userSpaceOnUse" x="0" y="0" width="36" height="36">
<circle cx="18" cy="18" r="18" fill="#C4C4C4"/>
</mask>
<g mask="url(#whatsapp-icon-col)">
<path d="M36.878 -0.87793H0V36.0001H36.878V-0.87793Z" fill="#1BD741"/>
<path d="M5.54297 30.4703L7.34936 24.0546C6.18774 22.0812 5.57615 19.8359 5.57615 17.5293C5.57615 10.4273 11.354 4.64941 18.456 4.64941C25.558 4.64941 31.3359 10.4273 31.3359 17.5293C31.3359 24.6313 25.558 30.4092 18.456 30.4092C16.2431 30.4092 14.0762 29.8428 12.1593 28.7672L5.54297 30.4703ZM12.4975 26.4239L12.8918 26.6647C14.5631 27.685 16.4872 28.2243 18.456 28.2243C24.3533 28.2243 29.151 23.4266 29.151 17.5293C29.151 11.6321 24.3533 6.83427 18.456 6.83427C12.5588 6.83427 7.761 11.6321 7.761 17.5293C7.761 19.5841 8.34501 21.5796 9.44974 23.2998L9.71524 23.7133L8.675 27.4079L12.4975 26.4239Z" fill="white"/>
<path d="M14.8352 11.5344L13.9995 11.4888C13.737 11.4745 13.4795 11.5622 13.281 11.7346C12.8759 12.0864 12.228 12.7666 12.029 13.653C11.7323 14.9747 12.1909 16.5931 13.3778 18.2115C14.5646 19.83 16.7764 22.4194 20.6876 23.5254C21.9479 23.8817 22.9393 23.6415 23.7043 23.1522C24.3101 22.7646 24.7278 22.1426 24.8783 21.4394L25.0117 20.8161C25.0541 20.618 24.9535 20.417 24.7695 20.3322L21.945 19.0303C21.7616 18.9458 21.5442 18.9992 21.4209 19.159L20.312 20.5965C20.2282 20.7051 20.0849 20.7482 19.9554 20.7027C19.196 20.4358 16.6524 19.3705 15.2566 16.682C15.1961 16.5654 15.2112 16.4238 15.297 16.3244L16.3568 15.0984C16.465 14.9733 16.4924 14.7973 16.4273 14.6451L15.2098 11.7966C15.145 11.645 14.9997 11.5434 14.8352 11.5344Z" fill="white"/>
</g>
</svg>
